<!DOCTYPE svg PUBLIC "-//W3C//DTD SVG 1.1//EN" "http://www.w3.org/Graphics/SVG/1.1/DTD/svg11.dtd">

<!-- Uploaded to: SVG Repo, www.svgrepo.com, Transformed by: SVG Repo Mixer Tools -->
<svg height="64px" width="64px" version="1.1" id="Layer_1" xmlns="http://www.w3.org/2000/svg" xmlns:xlink="http://www.w3.org/1999/xlink" viewBox="0 0 491.444 491.444" xml:space="preserve" fill="#000000">

<g id="SVGRepo_bgCarrier" stroke-width="0"/>

<g id="SVGRepo_tracerCarrier" stroke-linecap="round" stroke-linejoin="round"/>

<g id="SVGRepo_iconCarrier"> <path style="fill:#D15241;" d="M0.11,245.721c-1.434,61.225,11.068,122.791,39.645,145.883c80.101,64.726,331.832,64.726,411.932,0 c28.577-23.093,41.079-84.659,39.646-145.883H0.11z"/> <path style="fill:#E56353;" d="M451.687,105.91c-72.82-72.82-339.111-72.82-411.932,0C15.231,130.434,1.463,187.925,0.11,245.721 h491.223C489.98,187.925,476.213,130.434,451.687,105.91z"/> <path style="fill:#FFFFFF;" d="M320.941,232.105L190.51,136.284c-11.159-8.199-26.9-0.231-26.9,13.617v95.82h164.225 C327.834,240.6,325.537,235.481,320.941,232.105z"/> <path style="fill:#EBF0F3;" d="M190.51,355.161l130.432-95.823c4.595-3.375,6.893-8.496,6.893-13.617H163.609v95.824 C163.609,355.391,179.351,363.359,190.51,355.161z"/> </g>

</svg>